# xmcd
#
# Track frame offsets: 
#        150
#        17064
#        37350
#        56716
#        75214
#        106398
#        119314
#        133350
#        149378
#        171450
#        196500
#
# Disc length: 2811 seconds
#
# Revision: 0
# Processed by: cddbd v1.5.2PL0 Copyright (c) Steve Scherf et al.
# Submitted via: ExactAudioCopy v1.1
#
DISCID=9b0af90b
DTITLE=Kraków Street Band - Going Away
DYEAR=2018
DGENRE=Blues
TTITLE0=Going Away
TTITLE1=The Wheels And Spining
TTITLE2=Fluke
TTITLE3=Sniffin' For Love
TTITLE4=Photography
TTITLE5=Delicate Matter
TTITLE6=Underneth Your Smile
TTITLE7=Happy With You
TTITLE8=The Catch
TTITLE9=Sweet Certainty
TTITLE10=The Morning
EXTD=
EXTT0=
EXTT1=
EXTT2=
EXTT3=
EXTT4=
EXTT5=
EXTT6=
EXTT7=
EXTT8=
EXTT9=
EXTT10=
PLAYORDER=
